<svg width="32" height="32" viewBox="0 0 32 32" fill="none" xmlns="http://www.w3.org/2000/svg">
<circle cx="16" cy="16" r="14" stroke="black" stroke-width="4"/>
<circle cx="16" cy="16" r="14" stroke="black" stroke-opacity="0.2" stroke-width="4"/>
<path d="M11.5059 21.8017C10.7059 21.8017 10.0159 21.6867 9.43586 21.4567C8.86586 21.2267 8.42586 20.8917 8.11586 20.4517C7.81586 20.0017 7.66586 19.4667 7.66586 18.8467C7.66586 18.3467 7.76586 17.9067 7.96586 17.5267C8.16586 17.1367 8.44586 16.8217 8.80586 16.5817C9.16586 16.3417 9.58086 16.1917 10.0509 16.1317V16.4017C9.40086 16.2617 8.88086 15.9567 8.49086 15.4867C8.11086 15.0067 7.92086 14.4367 7.92086 13.7767C7.92086 13.1867 8.06586 12.6817 8.35586 12.2617C8.65586 11.8317 9.07586 11.5067 9.61586 11.2867C10.1559 11.0667 10.7859 10.9567 11.5059 10.9567C12.2359 10.9567 12.8709 11.0667 13.4109 11.2867C13.9509 11.5067 14.3659 11.8317 14.6559 12.2617C14.9559 12.6817 15.1059 13.1867 15.1059 13.7767C15.1059 14.2167 15.0159 14.6217 14.8359 14.9917C14.6659 15.3517 14.4209 15.6567 14.1009 15.9067C13.7809 16.1467 13.4059 16.3067 12.9759 16.3867V16.1317C13.6859 16.2317 14.2559 16.5267 14.6859 17.0167C15.1259 17.4967 15.3459 18.1067 15.3459 18.8467C15.3459 19.4667 15.1909 20.0017 14.8809 20.4517C14.5809 20.8917 14.1459 21.2267 13.5759 21.4567C13.0059 21.6867 12.3159 21.8017 11.5059 21.8017ZM11.5059 20.5717C12.2959 20.5717 12.8909 20.4217 13.2909 20.1217C13.6909 19.8117 13.8909 19.3517 13.8909 18.7417C13.8909 18.1317 13.6909 17.6767 13.2909 17.3767C12.8909 17.0767 12.2959 16.9267 11.5059 16.9267C10.7259 16.9267 10.1309 17.0767 9.72086 17.3767C9.32086 17.6767 9.12086 18.1317 9.12086 18.7417C9.12086 19.3517 9.32086 19.8117 9.72086 20.1217C10.1309 20.4217 10.7259 20.5717 11.5059 20.5717ZM11.5059 15.6967C11.9559 15.6967 12.3359 15.6267 12.6459 15.4867C12.9659 15.3367 13.2109 15.1317 13.3809 14.8717C13.5509 14.6017 13.6359 14.2867 13.6359 13.9267C13.6359 13.3867 13.4459 12.9617 13.0659 12.6517C12.6959 12.3417 12.1759 12.1867 11.5059 12.1867C10.8359 12.1867 10.3159 12.3417 9.94586 12.6517C9.57586 12.9617 9.39086 13.3867 9.39086 13.9267C9.39086 14.4767 9.57586 14.9117 9.94586 15.2317C10.3159 15.5417 10.8359 15.6967 11.5059 15.6967ZM20.875 21.8017C20.025 21.8017 19.3 21.5967 18.7 21.1867C18.11 20.7767 17.655 20.1867 17.335 19.4167C17.025 18.6367 16.87 17.7017 16.87 16.6117C16.87 15.7017 16.97 14.8967 17.17 14.1967C17.37 13.4967 17.66 12.9067 18.04 12.4267C18.42 11.9467 18.88 11.5817 19.42 11.3317C19.97 11.0817 20.59 10.9567 21.28 10.9567C21.73 10.9567 22.19 11.0367 22.66 11.1967C23.13 11.3467 23.56 11.5767 23.95 11.8867C24.08 11.9767 24.16 12.0917 24.19 12.2317C24.23 12.3617 24.235 12.4917 24.205 12.6217C24.175 12.7417 24.115 12.8467 24.025 12.9367C23.935 13.0267 23.82 13.0817 23.68 13.1017C23.55 13.1117 23.41 13.0667 23.26 12.9667C22.92 12.7167 22.58 12.5417 22.24 12.4417C21.91 12.3317 21.58 12.2767 21.25 12.2767C20.63 12.2767 20.105 12.4267 19.675 12.7267C19.245 13.0267 18.92 13.4767 18.7 14.0767C18.48 14.6767 18.37 15.4217 18.37 16.3117V17.5867H18.205C18.275 17.0467 18.44 16.5817 18.7 16.1917C18.97 15.7917 19.315 15.4867 19.735 15.2767C20.155 15.0667 20.62 14.9617 21.13 14.9617C21.75 14.9617 22.295 15.1067 22.765 15.3967C23.245 15.6867 23.62 16.0867 23.89 16.5967C24.16 17.0967 24.295 17.6717 24.295 18.3217C24.295 18.9917 24.15 19.5917 23.86 20.1217C23.57 20.6517 23.165 21.0667 22.645 21.3667C22.135 21.6567 21.545 21.8017 20.875 21.8017ZM20.785 20.5417C21.195 20.5417 21.555 20.4517 21.865 20.2717C22.175 20.0917 22.415 19.8417 22.585 19.5217C22.755 19.1917 22.84 18.8117 22.84 18.3817C22.84 17.9517 22.755 17.5767 22.585 17.2567C22.415 16.9367 22.175 16.6867 21.865 16.5067C21.555 16.3167 21.195 16.2217 20.785 16.2217C20.375 16.2217 20.015 16.3167 19.705 16.5067C19.405 16.6867 19.165 16.9367 18.985 17.2567C18.815 17.5767 18.73 17.9517 18.73 18.3817C18.73 18.8117 18.815 19.1917 18.985 19.5217C19.165 19.8417 19.405 20.0917 19.705 20.2717C20.015 20.4517 20.375 20.5417 20.785 20.5417Z" fill="black"/>
<path d="M9.43586 21.4567L9.06166 22.384L9.06723 22.3862L9.43586 21.4567ZM8.11586 20.4517L7.28381 21.0064L7.29096 21.0171L7.29838 21.0276L8.11586 20.4517ZM7.96586 17.5267L8.85083 17.9924L8.85568 17.983L7.96586 17.5267ZM10.0509 16.1317H11.0509V14.9959L9.92423 15.1397L10.0509 16.1317ZM10.0509 16.4017L9.8403 17.3792L11.0509 17.64V16.4017H10.0509ZM8.49086 15.4867L7.70681 16.1074L7.71395 16.1164L7.7213 16.1252L8.49086 15.4867ZM8.35586 12.2617L7.53572 11.6895L7.53296 11.6935L8.35586 12.2617ZM13.4109 11.2867L13.0336 12.2127L13.0336 12.2127L13.4109 11.2867ZM14.6559 12.2617L13.8268 12.8208L13.8343 12.8319L13.8421 12.8429L14.6559 12.2617ZM14.8359 14.9917L13.9366 14.5542L13.9316 14.5646L14.8359 14.9917ZM14.1009 15.9067L14.7009 16.7067L14.7087 16.7007L14.7165 16.6947L14.1009 15.9067ZM12.9759 16.3867H11.9759V17.5899L13.1588 17.3698L12.9759 16.3867ZM12.9759 16.1317L13.1153 15.1414L11.9759 14.9809V16.1317H12.9759ZM14.6859 17.0167L13.9342 17.6762L13.9414 17.6844L13.9487 17.6924L14.6859 17.0167ZM14.8809 20.4517L14.0573 19.8843L14.0546 19.8883L14.8809 20.4517ZM13.5759 21.4567L13.2017 20.5293L13.5759 21.4567ZM13.2909 20.1217L13.8909 20.9217L13.8972 20.9169L13.9034 20.9121L13.2909 20.1217ZM13.2909 17.3767L13.8909 16.5767L13.8909 16.5767L13.2909 17.3767ZM9.72086 17.3767L9.13031 16.5696L9.12086 16.5767L9.72086 17.3767ZM9.72086 20.1217L9.10829 20.9121L9.1192 20.9205L9.13035 20.9287L9.72086 20.1217ZM12.6459 15.4867L13.0575 16.3981L13.0703 16.3921L12.6459 15.4867ZM13.3809 14.8717L14.2178 15.4189L14.2225 15.4117L14.2271 15.4045L13.3809 14.8717ZM13.0659 12.6517L12.4236 13.4182L12.4337 13.4265L13.0659 12.6517ZM9.94586 12.6517L10.5881 13.4182L10.5881 13.4182L9.94586 12.6517ZM9.94586 15.2317L9.29171 15.988L9.29763 15.9931L9.30364 15.9982L9.94586 15.2317ZM11.5059 20.8017C10.798 20.8017 10.2392 20.6995 9.80449 20.5271L9.06723 22.3862C9.79252 22.6738 10.6137 22.8017 11.5059 22.8017V20.8017ZM9.81005 20.5293C9.39253 20.3608 9.11735 20.1369 8.93334 19.8757L7.29838 21.0276C7.73437 21.6464 8.33919 22.0925 9.06167 22.384L9.81005 20.5293ZM8.94791 19.897C8.77283 19.6343 8.66586 19.299 8.66586 18.8467H6.66586C6.66586 19.6343 6.85889 20.369 7.28381 21.0064L8.94791 19.897ZM8.66586 18.8467C8.66586 18.4822 8.73791 18.2069 8.85078 17.9924L7.08094 17.0609C6.79381 17.6065 6.66586 18.2111 6.66586 18.8467H8.66586ZM8.85568 17.983C8.9789 17.7427 9.1444 17.5578 9.36056 17.4137L8.25116 15.7496C7.74732 16.0855 7.35282 16.5306 7.07604 17.0703L8.85568 17.983ZM9.36056 17.4137C9.58026 17.2672 9.84581 17.1659 10.1775 17.1236L9.92423 15.1397C9.31591 15.2174 8.75146 15.4161 8.25116 15.7496L9.36056 17.4137ZM9.05086 16.1317V16.4017H11.0509V16.1317H9.05086ZM10.2614 15.4241C9.80979 15.3268 9.49438 15.13 9.26042 14.8481L7.7213 16.1252C8.26734 16.7833 8.99193 17.1965 9.8403 17.3792L10.2614 15.4241ZM9.27491 14.866C9.046 14.5768 8.92086 14.2301 8.92086 13.7767H6.92086C6.92086 14.6432 7.17572 15.4365 7.70681 16.1074L9.27491 14.866ZM8.92086 13.7767C8.92086 13.357 9.02133 13.0578 9.17876 12.8298L7.53296 11.6935C7.11039 12.3055 6.92086 13.0163 6.92086 13.7767H8.92086ZM9.17599 12.8338C9.35345 12.5795 9.61108 12.3684 9.99316 12.2127L9.23856 10.3606C8.54064 10.6449 7.95826 11.0838 7.53573 11.6895L9.17599 12.8338ZM9.99316 12.2127C10.3888 12.0515 10.8858 11.9567 11.5059 11.9567V9.95666C10.6859 9.95666 9.92289 10.0818 9.23856 10.3606L9.99316 12.2127ZM11.5059 11.9567C12.1379 11.9567 12.6394 12.0522 13.0336 12.2127L13.7882 10.3606C13.1023 10.0812 12.3338 9.95666 11.5059 9.95666V11.9567ZM13.0336 12.2127C13.4136 12.3676 13.6611 12.5752 13.8268 12.8208L15.4849 11.7025C15.0706 11.0882 14.4882 10.6458 13.7882 10.3606L13.0336 12.2127ZM13.8421 12.8429C14.0042 13.0697 14.1059 13.3641 14.1059 13.7767H16.1059C16.1059 13.0092 15.9076 12.2936 15.4696 11.6804L13.8421 12.8429ZM14.1059 13.7767C14.1059 14.0758 14.0458 14.3298 13.9366 14.5542L15.7351 15.4291C15.9859 14.9135 16.1059 14.3575 16.1059 13.7767H14.1059ZM13.9316 14.5646C13.8297 14.7805 13.6847 14.9628 13.4852 15.1186L14.7165 16.6947C15.157 16.3505 15.502 15.9228 15.7401 15.4187L13.9316 14.5646ZM13.5009 15.1067C13.3151 15.246 13.0861 15.349 12.793 15.4035L13.1588 17.3698C13.7257 17.2643 14.2466 17.0474 14.7009 16.7067L13.5009 15.1067ZM13.9759 16.3867V16.1317H11.9759V16.3867H13.9759ZM12.8364 17.1219C13.3348 17.1921 13.6783 17.3846 13.9342 17.6762L15.4375 16.3571C14.8334 15.6687 14.0369 15.2712 13.1153 15.1414L12.8364 17.1219ZM13.9487 17.6924C14.1964 17.9626 14.3459 18.3202 14.3459 18.8467H16.3459C16.3459 17.8931 16.0553 17.0307 15.423 16.3409L13.9487 17.6924ZM14.3459 18.8467C14.3459 19.2923 14.2374 19.6231 14.0574 19.8844L15.7044 21.019C16.1444 20.3803 16.3459 19.641 16.3459 18.8467H14.3459ZM14.0546 19.8883C13.8824 20.1409 13.6174 20.3616 13.2017 20.5293L13.9501 22.384C14.6744 22.0917 15.2793 21.6424 15.7071 21.015L14.0546 19.8883ZM13.2017 20.5293C12.7818 20.6987 12.2262 20.8017 11.5059 20.8017V22.8017C12.4055 22.8017 13.2299 22.6746 13.9501 22.384L13.2017 20.5293ZM11.5059 21.5717C12.3954 21.5717 13.2432 21.4074 13.8909 20.9217L12.6909 19.3217C12.5385 19.4359 12.1963 19.5717 11.5059 19.5717V21.5717ZM13.9034 20.9121C14.5989 20.3731 14.8909 19.59 14.8909 18.7417H12.8909C12.8909 19.1133 12.7829 19.2502 12.6783 19.3312L13.9034 20.9121ZM14.8909 18.7417C14.8909 17.8943 14.5988 17.1076 13.8909 16.5767L12.6909 18.1767C12.783 18.2457 12.8909 18.369 12.8909 18.7417H14.8909ZM13.8909 16.5767C13.2432 16.0909 12.3954 15.9267 11.5059 15.9267V17.9267C12.1963 17.9267 12.5385 18.0624 12.6909 18.1767L13.8909 16.5767ZM11.5059 15.9267C10.6203 15.9267 9.78142 16.0932 9.13035 16.5696L10.3114 18.1837C10.4803 18.0601 10.8315 17.9267 11.5059 17.9267V15.9267ZM9.12086 16.5767C8.41296 17.1076 8.12086 17.8943 8.12086 18.7417H10.1209C10.1209 18.369 10.2288 18.2457 10.3209 18.1767L9.12086 16.5767ZM8.12086 18.7417C8.12086 19.59 8.41286 20.3731 9.10829 20.9121L10.3334 19.3312C10.2289 19.2502 10.1209 19.1133 10.1209 18.7417H8.12086ZM9.13035 20.9287C9.78142 21.4051 10.6203 21.5717 11.5059 21.5717V19.5717C10.8315 19.5717 10.4803 19.4382 10.3114 19.3146L9.13035 20.9287ZM11.5059 16.6967C12.0541 16.6967 12.5835 16.6121 13.0574 16.398L12.2343 14.5753C12.0882 14.6412 11.8576 14.6967 11.5059 14.6967V16.6967ZM13.0703 16.3921C13.5347 16.1744 13.9328 15.8548 14.2178 15.4189L12.5439 14.3244C12.4889 14.4085 12.397 14.4989 12.2214 14.5812L13.0703 16.3921ZM14.2271 15.4045C14.51 14.9551 14.6359 14.4503 14.6359 13.9267H12.6359C12.6359 14.123 12.5917 14.2482 12.5346 14.3388L14.2271 15.4045ZM14.6359 13.9267C14.6359 13.1207 14.3363 12.3975 13.698 11.8768L12.4337 13.4265C12.5554 13.5258 12.6359 13.6526 12.6359 13.9267H14.6359ZM13.7081 11.8851C13.0991 11.3749 12.3203 11.1867 11.5059 11.1867V13.1867C12.0315 13.1867 12.2926 13.3084 12.4236 13.4182L13.7081 11.8851ZM11.5059 11.1867C10.6915 11.1867 9.91258 11.3749 9.30364 11.8851L10.5881 13.4182C10.7191 13.3084 10.9803 13.1867 11.5059 13.1867V11.1867ZM9.30364 11.8851C8.6782 12.4091 8.39086 13.1303 8.39086 13.9267H10.3909C10.3909 13.643 10.4735 13.5142 10.5881 13.4182L9.30364 11.8851ZM8.39086 13.9267C8.39086 14.7267 8.67328 15.4532 9.29171 15.988L10.6 14.4753C10.4784 14.3701 10.3909 14.2266 10.3909 13.9267H8.39086ZM9.30364 15.9982C9.91258 16.5084 10.6915 16.6967 11.5059 16.6967V14.6967C10.9803 14.6967 10.7191 14.5749 10.5881 14.4651L9.30364 15.9982ZM18.7 21.1867L18.1293 22.0079L18.1358 22.0123L18.7 21.1867ZM17.335 19.4167L16.4057 19.786L16.4086 19.7932L16.4116 19.8004L17.335 19.4167ZM17.17 14.1967L16.2085 13.9219L16.2085 13.9219L17.17 14.1967ZM18.04 12.4267L17.256 11.806L17.256 11.806L18.04 12.4267ZM19.42 11.3317L19.0062 10.4213L18.9999 10.4242L19.42 11.3317ZM22.66 11.1967L22.3377 12.1433L22.3468 12.1464L22.356 12.1493L22.66 11.1967ZM23.95 11.8867L23.3278 12.6695L23.3536 12.69L23.3808 12.7088L23.95 11.8867ZM24.19 12.2317L23.2122 12.4412L23.2214 12.4839L23.2342 12.5257L24.19 12.2317ZM24.205 12.6217L25.1751 12.8642L25.1773 12.8554L25.1794 12.8465L24.205 12.6217ZM24.025 12.9367L24.7321 13.6438L24.025 12.9367ZM23.68 13.1017L23.7567 14.0987L23.7892 14.0962L23.8214 14.0916L23.68 13.1017ZM23.26 12.9667L22.6676 13.7723L22.6862 13.7859L22.7053 13.7987L23.26 12.9667ZM22.24 12.4417L21.9238 13.3903L21.9407 13.396L21.9578 13.401L22.24 12.4417ZM19.675 12.7267L20.2472 13.5468L20.2472 13.5468L19.675 12.7267ZM18.7 14.0767L17.7611 13.7324L17.7611 13.7324L18.7 14.0767ZM18.37 17.5867V18.5867H19.37V17.5867H18.37ZM18.205 17.5867L17.2133 17.4581L17.067 18.5867H18.205V17.5867ZM18.7 16.1917L17.8711 15.6322L17.8679 15.637L18.7 16.1917ZM22.765 15.3967L22.2399 16.2477L22.2479 16.2526L22.765 15.3967ZM23.89 16.5967L23.0062 17.0646L23.0101 17.0718L23.89 16.5967ZM23.86 20.1217L24.7373 20.6017L24.7373 20.6017L23.86 20.1217ZM22.645 21.3667L23.1393 22.236L23.1447 22.2328L22.645 21.3667ZM21.865 20.2717L22.3671 21.1364L22.3671 21.1364L21.865 20.2717ZM22.585 19.5217L23.4682 19.9908L23.474 19.9796L22.585 19.5217ZM22.585 17.2567L21.7019 17.7258L21.7019 17.7258L22.585 17.2567ZM21.865 16.5067L21.3424 17.3593L21.3526 17.3655L21.3629 17.3714L21.865 16.5067ZM19.705 16.5067L20.2195 17.3642L20.2276 17.3593L19.705 16.5067ZM18.985 17.2567L18.1134 16.7664L18.1075 16.7769L18.1019 16.7875L18.985 17.2567ZM18.985 19.5217L18.096 19.9796L18.1044 19.9959L18.1134 20.0119L18.985 19.5217ZM19.705 20.2717L19.1905 21.1291L19.1967 21.1328L19.2029 21.1364L19.705 20.2717ZM20.875 20.8017C20.1913 20.8017 19.6712 20.6391 19.2642 20.361L18.1358 22.0123C18.9288 22.5542 19.8587 22.8017 20.875 22.8017V20.8017ZM19.2707 20.3655C18.8615 20.0812 18.5171 19.6553 18.2584 19.0329L16.4116 19.8004C16.7929 20.718 17.3585 21.4721 18.1293 22.0078L19.2707 20.3655ZM18.2643 19.0473C18.0127 18.4142 17.87 17.6111 17.87 16.6117H15.87C15.87 17.7922 16.0373 18.8591 16.4057 19.786L18.2643 19.0473ZM17.87 16.6117C17.87 15.7725 17.9625 15.063 18.1315 14.4714L16.2085 13.9219C15.9775 14.7303 15.87 15.6309 15.87 16.6117H17.87ZM18.1315 14.4714C18.3022 13.8739 18.5391 13.4073 18.824 13.0474L17.256 11.806C16.7809 12.406 16.4378 13.1195 16.2085 13.9219L18.1315 14.4714ZM18.824 13.0474C19.1098 12.6865 19.4464 12.4214 19.8401 12.2391L18.9999 10.4242C18.3136 10.7419 17.7302 11.2069 17.256 11.806L18.824 13.0474ZM19.8338 12.242C20.2366 12.0589 20.7125 11.9567 21.28 11.9567V9.95666C20.4675 9.95666 19.7034 10.1044 19.0062 10.4213L19.8338 12.242ZM21.28 11.9567C21.6097 11.9567 21.9608 12.015 22.3377 12.1433L22.9823 10.25C22.4192 10.0583 21.8503 9.95666 21.28 9.95666V11.9567ZM22.356 12.1493C22.7093 12.2621 23.0317 12.4342 23.3278 12.6695L24.5722 11.1038C24.0883 10.7192 23.5507 10.4312 22.964 10.244L22.356 12.1493ZM23.3808 12.7088C23.3601 12.6945 23.323 12.6638 23.2866 12.6115C23.2491 12.5576 23.2244 12.498 23.2122 12.4412L25.1678 12.0221C25.0787 11.6065 24.8347 11.2829 24.5192 11.0645L23.3808 12.7088ZM23.2342 12.5257C23.2299 12.5116 23.2255 12.4907 23.2245 12.4651C23.2235 12.4394 23.2262 12.4159 23.2306 12.3968L25.1794 12.8465C25.2498 12.5414 25.2365 12.2325 25.1458 11.9376L23.2342 12.5257ZM23.2349 12.3791C23.2415 12.3524 23.2528 12.323 23.2693 12.2943C23.2856 12.2656 23.3033 12.2441 23.3179 12.2295L24.7321 13.6438C24.9464 13.4295 25.0999 13.1653 25.1751 12.8642L23.2349 12.3791ZM23.3179 12.2295C23.3532 12.1943 23.3952 12.1646 23.4398 12.1433C23.4834 12.1224 23.5189 12.1145 23.5386 12.1117L23.8214 14.0916C24.1506 14.0446 24.4721 13.9037 24.7321 13.6438L23.3179 12.2295ZM23.6033 12.1046C23.7679 12.0919 23.8488 12.1573 23.8147 12.1346L22.7053 13.7987C22.9712 13.976 23.3321 14.1314 23.7567 14.0987L23.6033 12.1046ZM23.8524 12.161C23.4361 11.8549 22.9927 11.6207 22.5222 11.4823L21.9578 13.401C22.1673 13.4626 22.4039 13.5784 22.6676 13.7723L23.8524 12.161ZM22.5562 11.493C22.1298 11.3508 21.6932 11.2767 21.25 11.2767V13.2767C21.4668 13.2767 21.6902 13.3125 21.9238 13.3903L22.5562 11.493ZM21.25 11.2767C20.4636 11.2767 19.7295 11.4693 19.1028 11.9065L20.2472 13.5468C20.4805 13.384 20.7964 13.2767 21.25 13.2767V11.2767ZM19.1028 11.9065C18.4709 12.3474 18.036 12.9827 17.7611 13.7324L19.6389 14.4209C19.804 13.9706 20.0191 13.7059 20.2472 13.5468L19.1028 11.9065ZM17.7611 13.7324C17.4882 14.4767 17.37 15.3469 17.37 16.3117H19.37C19.37 15.4964 19.4718 14.8766 19.6389 14.4209L17.7611 13.7324ZM17.37 16.3117V17.5867H19.37V16.3117H17.37ZM18.37 16.5867H18.205V18.5867H18.37V16.5867ZM19.1967 17.7152C19.2501 17.303 19.3701 16.9893 19.5321 16.7464L17.8679 15.637C17.5099 16.174 17.2999 16.7903 17.2133 17.4581L19.1967 17.7152ZM19.5288 16.7511C19.7054 16.4896 19.9205 16.3019 20.1822 16.1711L19.2878 14.3822C18.7095 14.6714 18.2346 15.0937 17.8712 15.6322L19.5288 16.7511ZM20.1822 16.1711C20.4517 16.0364 20.7616 15.9617 21.13 15.9617V13.9617C20.4784 13.9617 19.8583 14.097 19.2878 14.3822L20.1822 16.1711ZM21.13 15.9617C21.5879 15.9617 21.9465 16.0667 22.2399 16.2477L23.2901 14.5456C22.6435 14.1466 21.9121 13.9617 21.13 13.9617V15.9617ZM22.2479 16.2526C22.5681 16.446 22.8184 16.7099 23.0062 17.0645L24.7738 16.1288C24.4216 15.4635 23.9219 14.9273 23.2821 14.5407L22.2479 16.2526ZM23.0101 17.0718C23.1906 17.406 23.295 17.8134 23.295 18.3217H25.295C25.295 17.5299 25.1294 16.7873 24.7699 16.1215L23.0101 17.0718ZM23.295 18.3217C23.295 18.8425 23.1837 19.2744 22.9827 19.6416L24.7373 20.6017C25.1163 19.909 25.295 19.1408 25.295 18.3217H23.295ZM22.9827 19.6416C22.7802 20.0118 22.5053 20.2927 22.1453 20.5005L23.1447 22.2328C23.8247 21.8406 24.3598 21.2915 24.7373 20.6017L22.9827 19.6416ZM22.1507 20.4974C21.8117 20.6901 21.3967 20.8017 20.875 20.8017V22.8017C21.6933 22.8017 22.4583 22.6232 23.1393 22.2359L22.1507 20.4974ZM20.785 21.5417C21.3456 21.5417 21.8838 21.4171 22.3671 21.1364L21.3629 19.4069C21.2262 19.4862 21.0444 19.5417 20.785 19.5417V21.5417ZM22.3671 21.1364C22.8404 20.8616 23.2115 20.4738 23.4681 19.9908L21.7019 19.0525C21.6185 19.2095 21.5096 19.3217 21.3629 19.4069L22.3671 21.1364ZM23.474 19.9796C23.7277 19.4871 23.84 18.9457 23.84 18.3817H21.84C21.84 18.6776 21.7823 18.8962 21.696 19.0637L23.474 19.9796ZM23.84 18.3817C23.84 17.8185 23.728 17.2767 23.4681 16.7875L21.7019 17.7258C21.782 17.8766 21.84 18.0848 21.84 18.3817H23.84ZM23.4681 16.7875C23.2115 16.3045 22.8404 15.9167 22.3671 15.6419L21.3629 17.3714C21.5096 17.4566 21.6185 17.5688 21.7019 17.7258L23.4681 16.7875ZM22.3876 15.6541C21.9009 15.3558 21.3553 15.2217 20.785 15.2217V17.2217C21.0347 17.2217 21.2091 17.2775 21.3424 17.3593L22.3876 15.6541ZM20.785 15.2217C20.2147 15.2217 19.6691 15.3558 19.1824 15.6541L20.2276 17.3593C20.3609 17.2775 20.5353 17.2217 20.785 17.2217V15.2217ZM19.1905 15.6492C18.7341 15.923 18.3742 16.3028 18.1134 16.7664L19.8566 17.7469C19.9558 17.5705 20.0759 17.4503 20.2195 17.3641L19.1905 15.6492ZM18.1019 16.7875C17.842 17.2767 17.73 17.8185 17.73 18.3817H19.73C19.73 18.0848 19.788 17.8766 19.8681 17.7258L18.1019 16.7875ZM17.73 18.3817C17.73 18.9457 17.8423 19.4871 18.096 19.9796L19.874 19.0637C19.7877 18.8962 19.73 18.6776 19.73 18.3817H17.73ZM18.1134 20.0119C18.3742 20.4755 18.7341 20.8553 19.1905 21.1291L20.2195 19.4142C20.0759 19.328 19.9558 19.2078 19.8566 19.0314L18.1134 20.0119ZM19.2029 21.1364C19.6862 21.4171 20.2244 21.5417 20.785 21.5417V19.5417C20.5256 19.5417 20.3438 19.4862 20.2071 19.4069L19.2029 21.1364Z" fill="black"/>
</svg>
